<svg width="748" height="487" viewBox="0 0 748 487" fill="none" xmlns="http://www.w3.org/2000/svg">
<path d="M-36.9 439.2C-22.53 472.5 15.2 493.51 51 484.81C68.4162 480.561 83.8102 470.382 94.54 456.02C105.062 441.537 109.577 423.546 107.14 405.81C104.89 388.72 96.69 372.18 83.4 361.01C71.17 350.72 53.78 345.45 38 349.01C21.64 352.74 11.05 366.72 10.31 383.24C9.49999 401.36 18.51 418.93 31 431.51C44.17 444.7 62.37 453.09 81.18 449.64C99.99 446.19 112.26 431.5 115.07 412.97C118.39 391.11 109.77 370.32 105.85 349.18C102.455 330.652 104.138 311.55 110.72 293.9C123.27 259.77 152.5 231.12 188.24 222.53C207.8 217.83 230.62 218.83 247.33 231.1C262.54 242.27 268.97 262.35 265.27 280.58C261.53 298.99 247.42 312.53 229.13 316.36C211 320.15 191.32 314.08 180.28 298.81C169.69 284.18 167.8 264.19 173.6 247.31C180 228.81 196 215.27 214.1 208.81C255.1 194.3 297.16 216.38 323.38 247.73C350.84 280.56 364.09 322.21 388.38 357.08C409.33 387.17 443.38 416.35 482.38 413.92C521 411.55 548 378.27 559.89 344.08C575.04 300.53 572.61 253.08 585.67 208.99C597.39 169.41 623.86 129.83 666.67 120.46C686.131 116.013 706.559 120.592 722.26 132.92C736.82 144.36 747.12 162.25 745.17 181.19C743.17 200.79 728.66 217.53 711.03 225.38C690.03 234.72 664.89 231.66 644.82 221.38C612.51 204.81 592 168.81 592 132.74C592.08 90.1603 622.6 55.9003 656.34 33.6903C675.07 21.3703 695.34 11.6903 715.57 2.10028C716.88 1.48029 715.74 -0.459717 714.43 0.100281C674.91 18.9103 633.26 39.1003 608.01 76.5303C597.39 92.2503 590.5 110.43 589.81 129.53C589.332 146.988 593.274 164.284 601.27 179.81C618.33 213.36 654.57 237.45 693.1 232.54C711.58 230.19 728.66 220.27 738.94 204.54C748.644 189.949 750.177 171.397 743 155.41C735.77 139.31 721.31 126.78 704.92 120.6C687.52 114.03 668.24 115.87 651.31 123.02C612.31 139.5 590.91 178.35 580.97 217.63C575.35 239.8 572.83 262.53 569.88 285.17C566.78 309.02 562.99 333.39 552.96 355.47C544.79 373.47 532.23 390.12 515.39 400.77C498.122 411.69 476.985 414.635 457.39 408.85C415.88 396.85 389.88 358.95 370.7 322.85C351.07 285.91 333.26 245.69 297.7 221.07C281.27 209.69 261.7 202.07 241.52 201.95C223.24 201.83 204.71 207.79 190.52 219.46C176.85 230.591 168.663 247.092 168.07 264.71C167.53 281.01 173.5 297.95 186.23 308.58C198.96 319.21 217 322.08 232.77 317.81C248.96 313.42 261.77 301.43 266.45 285.24C270.99 269.55 268.1 251.55 258.1 238.52C246.39 223.25 226.46 217.41 207.88 217.75C172.02 218.42 139.41 240.18 120.32 269.75C110.69 284.521 104.579 301.305 102.46 318.81C101.449 327.673 101.611 336.63 102.94 345.45C104.77 357.6 108.5 369.35 111.05 381.35C115.38 401.76 115.72 428.01 96.36 441.17C77.66 453.89 53.36 447.96 37.16 434.17C22.16 421.35 10.77 401.42 12.71 381.12C13.63 371.54 18.18 362.43 26.1 356.75C33.45 351.48 42.69 349.75 51.6 350.36C92.65 353.36 114.36 401.18 101.95 437.3C95.39 456.34 79.7 471.56 61.2 479.18C42.6217 486.815 21.6843 486.256 3.53999 477.64C-13.664 469.554 -27.343 455.491 -34.95 438.07C-35.53 436.74 -37.47 437.89 -36.9 439.2Z" fill="url(#paint0_linear_0_422)"/>
<defs>
<linearGradient id="paint0_linear_0_422" x1="747.474" y1="65.7783" x2="175.008" y2="65.7783" gradientUnits="userSpaceOnUse">
<stop stop-color="#323259" stop-opacity="0.01"/>
<stop offset="1" stop-color="#323259"/>
</linearGradient>
</defs>
</svg>
